<svg version="1.1" id="Layer_1" xmlns="http://www.w3.org/2000/svg" xmlns:xlink="http://www.w3.org/1999/xlink" x="0px" y="0px"
	 width="100%" viewBox="0 0 1024 1024" enable-background="new 0 0 1024 1024" xml:space="preserve">
<path fill="#000000" opacity="1.000000" stroke="none" 
	d="
M238.872742,781.882935 
	C238.329224,780.429138 237.929626,779.334351 237.514359,778.245483 
	C233.959091,768.922241 234.807510,761.531738 242.943268,753.859802 
	C290.701385,708.824890 337.977966,663.277771 385.275024,617.755859 
	C438.337250,566.685059 491.265198,515.474670 544.180481,464.251465 
	C546.994202,461.527710 549.098877,460.988037 552.763367,463.048431 
	C569.316833,472.355804 587.375793,473.931610 605.957886,472.854736 
	C624.527527,471.778595 641.137878,465.505859 655.598938,454.071136 
	C676.897766,437.229584 688.660217,415.381317 690.957886,387.915833 
	C694.834900,341.572021 659.030579,296.500946 610.097778,289.623688 
	C573.882935,284.533905 542.741394,295.328705 518.709778,323.354675 
	C506.068298,338.097382 499.433044,355.855652 497.282806,375.230011 
	C495.830963,388.311523 496.890350,401.121338 500.919830,413.664429 
	C501.866455,416.611084 501.436279,418.948792 499.070374,421.319031 
	C482.241089,438.179260 464.491302,454.056641 447.115723,470.333344 
	C440.431213,476.595093 433.914642,483.035950 427.305511,489.378540 
	C425.676636,490.941742 423.985229,492.439697 421.818298,494.431030 
	C420.420776,490.143372 419.688599,486.675842 419.687988,483.049774 
	C419.681946,446.717316 418.810577,410.358337 419.925446,374.060364 
	C420.901581,342.278687 432.634918,313.821808 451.747620,288.335663 
	C480.334656,250.215836 518.319702,227.770142 565.007507,219.630173 
	C656.699341,203.643784 739.796936,260.050507 762.811890,344.836395 
	C766.107117,356.976074 767.955383,369.256104 768.042053,381.766357 
	C768.195618,403.931152 767.896179,426.098969 768.034607,448.264008 
	C768.275146,486.781219 753.515930,519.079285 727.819763,547.036560 
	C705.415955,571.411743 677.452515,585.916443 645.705261,593.763428 
	C609.145508,602.799805 572.852356,601.975281 536.966797,590.248230 
	C531.918152,588.598328 527.072021,586.300171 522.203674,584.140747 
	C520.124268,583.218445 518.483276,583.202332 516.780518,584.872253 
	C510.241089,591.285522 503.653778,597.650269 497.048737,603.996094 
	C493.978607,606.945679 492.743469,610.376038 492.889130,614.721130 
	C493.179352,623.378052 492.960663,632.051147 493.003845,640.717346 
	C493.029663,645.896606 490.978058,650.151245 487.134338,653.447754 
	C482.461426,657.455322 476.216858,657.210144 471.878632,652.796570 
	C463.585510,644.359558 455.280212,635.923950 447.300598,627.194641 
	C444.234406,623.840332 441.926788,624.110840 439.047272,626.963318 
	C432.892242,633.060486 426.699371,639.119629 420.503662,645.175537 
	C418.203583,647.423645 417.960785,649.652710 420.214417,652.122192 
	C423.582794,655.813110 426.901276,659.551453 430.162262,663.337402 
	C431.122131,664.451782 432.424133,665.744690 432.532349,667.042297 
	C433.210449,675.174011 433.288544,683.336182 432.474579,691.466858 
	C432.178894,694.420288 429.718109,694.330688 427.494385,694.327637 
	C418.494598,694.315430 409.494781,694.290527 400.495026,694.309631 
	C394.346527,694.322693 394.129761,694.543701 394.107269,700.872803 
	C394.080017,708.539185 394.206970,716.207275 394.087494,723.871765 
	C393.972107,731.273315 392.141815,732.984192 384.919708,732.974243 
	C376.586761,732.962769 368.247284,733.144470 359.923340,732.865234 
	C355.108246,732.703735 353.306458,734.766479 353.347137,739.307739 
	C353.418854,747.306763 353.371582,755.307129 353.335083,763.306763 
	C353.306549,769.553589 352.597015,770.287048 346.490814,770.311707 
	C337.824463,770.346741 329.157867,770.312805 320.491425,770.332825 
	C314.457794,770.346802 313.560242,771.107239 313.436157,777.204102 
	C313.283600,784.701050 313.410492,792.203308 313.349518,799.702637 
	C313.304810,805.202881 310.930298,808.760132 305.732758,809.005188 
	C294.600983,809.530029 283.315582,810.466980 272.314575,808.705139 
	C256.569550,806.183655 245.455780,796.927673 238.872742,781.882935 
M727.936279,512.140015 
	C732.280884,508.357544 735.544128,503.873108 736.922852,498.186432 
	C737.817566,494.496521 739.789673,489.704376 736.245422,487.533356 
	C732.413147,485.185974 728.980896,489.097412 726.186523,491.933929 
	C717.770813,500.476837 709.050659,508.666504 699.052612,515.364624 
	C694.219055,518.602783 689.189941,521.555542 684.426941,524.890991 
	C680.283020,527.792786 679.459900,531.944580 682.646240,533.780334 
	C687.808777,536.754578 693.343689,538.688904 699.149536,535.198792 
	C704.992249,531.686523 711.123962,528.528870 716.486084,524.384033 
	C720.686279,521.137390 725.610657,518.184692 727.936279,512.140015 
M520.074829,527.919617 
	C519.708679,528.252258 519.085327,528.537659 519.014282,528.924500 
	C517.532288,536.989014 517.654480,545.092590 519.453918,553.042664 
	C520.161316,556.168152 523.002991,556.186096 525.511353,554.654419 
	C532.160461,550.594238 537.291748,544.070862 547.063843,543.010376 
	C539.322815,533.921692 529.683289,531.346436 520.074829,527.919617 
z"/>
<path fill="#000000" opacity="1.000000" stroke="none" 
	d="
M346.321808,647.322998 
	C309.228943,682.781921 272.374359,717.979492 235.499817,753.156189 
	C235.332977,753.315308 234.881271,753.175903 234.407562,753.175903 
	C233.043915,751.709839 233.673248,749.793213 233.667923,748.071838 
	C233.620499,732.740417 233.893066,717.403931 233.589584,702.078552 
	C233.325134,688.724304 237.995819,677.459534 246.171616,667.182983 
	C253.792297,657.604187 263.140533,649.755005 271.870941,641.353760 
	C283.848602,629.827637 295.389648,617.830627 307.792603,606.753479 
	C320.692627,595.232361 332.646729,582.723083 345.602264,571.244568 
	C355.649078,562.343201 365.584442,553.220581 375.025818,543.718079 
	C382.371826,536.324646 390.967407,530.207642 397.370941,521.824341 
	C399.434021,519.123352 402.077972,516.738220 405.588287,515.515869 
	C408.310516,514.567932 410.413147,512.494324 411.630646,509.820007 
	C412.629486,507.625977 414.196045,505.939270 415.850952,504.300110 
	C419.609192,500.577606 422.005005,500.521912 426.077881,503.954681 
	C427.478455,505.135132 428.820099,506.420898 430.353455,507.400726 
	C433.167145,509.198761 436.069305,509.797211 439.040558,507.295410 
	C437.058594,502.800018 432.579620,501.020416 429.776978,497.571930 
	C425.801178,492.679871 430.802979,491.733734 432.630951,489.407166 
	C434.798340,486.648468 436.918945,487.059967 439.206665,489.571503 
	C442.232941,492.893829 445.547943,495.951569 448.688080,499.172516 
	C450.593628,501.127045 452.579346,502.654663 455.029541,500.151611 
	C457.382904,497.747437 458.931732,495.113220 456.307526,491.818024 
	C453.803040,488.673065 450.884369,485.975037 447.925049,483.272522 
	C443.977325,479.667450 444.345978,478.666412 448.405853,474.499146 
	C451.732544,471.084442 454.431702,471.421844 456.902832,475.037903 
	C460.428772,480.197449 465.262238,484.063690 469.601562,488.420776 
	C470.667511,489.491119 471.782532,490.608795 473.506409,490.025116 
	C475.402466,489.383087 475.597595,487.752747 475.900269,486.034668 
	C476.871704,480.520477 473.791229,476.862793 470.334442,473.350464 
	C468.003174,470.981720 465.824341,468.324341 462.689728,467.046600 
	C461.238342,466.455048 460.905182,465.687988 461.061798,464.458649 
	C461.537964,460.721313 464.788696,459.147461 467.165405,456.947510 
	C469.214233,455.051086 470.842926,456.819366 472.403870,458.002747 
	C475.389954,460.266571 477.848083,459.053925 478.693329,456.131317 
	C483.475250,439.597168 496.714752,429.745636 508.141937,418.520416 
	C513.901306,412.862885 515.538330,413.248108 519.884033,420.086151 
	C527.258240,431.689545 536.162659,441.964783 546.236938,451.272766 
	C546.937683,451.920135 547.440369,452.781860 548.251221,453.820709 
	C480.928680,518.322266 413.744080,582.691650 346.321808,647.322998 
z"/>
<path fill="#000000" opacity="1.000000" stroke="none" 
	d="
M595.858276,334.855042 
	C610.436096,335.880188 622.764893,340.854858 631.241577,352.563110 
	C641.882874,367.261200 644.270630,383.297180 636.601257,400.169952 
	C628.686035,417.583679 615.193665,427.057159 595.902039,427.280457 
	C569.280762,427.588593 549.831482,410.930573 548.067444,384.474243 
	C546.507629,361.079681 559.682495,340.550049 586.483093,335.705994 
	C589.413391,335.176361 592.427979,335.113434 595.858276,334.855042 
z"/>
</svg>